EIGHT MEN OUT (1988) 

This is not an original upload, just passing it along, credit and thanks to "Flex" over at ahasharedotcom

        
Eight Men Out tells the true story of the infamous 'Black Sox' scandal of 1919, in which the White Sox players deliberately lost the World Series. The movie places the scandal in the context of a labor dispute between the players and their then all-powerful team owner, and how mobster Arnold Rothstein took advantage of the dispute. The result was a human tragedy for players like "Shoeless" Joe Jackson.



        John Cusack	... 	George 'Buck' Weaver
	Clifton James	... 	Charles 'Commie' Comiskey
	Michael Lerner	... 	Arnold Rothstein
	Christopher Lloyd.. 	'Sleepy' Bill Burns
	John Mahoney	... 	William 'Kid' Gleason
	Charlie Sheen	... 	Oscar 'Hap' Felsch
	David Strathairn... 	Eddie Cicotte
	D.B. Sweeney	... 	Joseph 'Shoeless Joe' Jackson
	Michael Rooker	... 	Arnold 'Chick' Gandil
	Don Harvey	... 	Charles 'Swede' Risberg


Download contains 2 avi files:

Format                           : AVI
Format/Info                      : Audio Video Interleave
File size                        : AVI 1. 700 MiB  AVI 2. 699MiB
Duration                         : AVI 1. 1h 2mn   AVI 2. 56mn 53sec
Overall bit rate                 : 1 559 Kbps
Writing application              : Nandub v1.0rc2
Writing library                  : Nandub build 1852/release

Video
ID                               : 0
Format                           : MPEG-4 Visual
Format profile                   : Simple@L3
Format settings, BVOP            : No
Format settings, QPel            : No
Format settings, GMC             : No warppoints
Format settings, Matrix          : Default (MPEG)
Codec ID                         : XVID
Codec ID/Hint                    : XviD
Duration                         : 1h 2mn
Bit rate                         : 1 358 Kbps
Width                            : 608 pixels
Height                           : 336 pixels
Display aspect ratio             : 16:9
Frame rate                       : 23.976 fps
Resolution                       : 8 bits
Colorimetry                      : 4:2:0
Scan type                        : Progressive
Bits/(Pixel*Frame)               : 0.277
Stream size                      : 610 MiB (87%)
Writing library                  : XviD 0.0.09 (UTC 2003-03-25)

Audio
ID                               : 1
Format                           : AC-3
Format/Info                      : Audio Coding 3
Codec ID                         : 2000
Duration                         : 1h 2mn
Bit rate mode                    : Constant
Bit rate                         : 192 Kbps
Channel(s)                       : 2 channels
Channel positions                : Front: L R
Sampling rate                    : 48.0 KHz
Stream size                      : 86.2 MiB (12%)
Alignment                        : Split accross interleaves
Interleave, duration             : 42 ms (1.00 video frame)
Interleave, preload duration     : 500 ms

